<svg width="25" height="25" viewBox="0 0 25 25" fill="none" xmlns="http://www.w3.org/2000/svg">
<path d="M20.3135 10.1548C20.3135 12.3956 19.5859 14.4657 18.3603 16.1451L24.5422 22.3307C25.1526 22.941 25.1526 23.932 24.5422 24.5423C23.9318 25.1526 22.9406 25.1526 22.3302 24.5423L16.1483 18.3567C14.4685 19.587 12.3981 20.3095 10.1567 20.3095C4.54612 20.3095 0 15.7643 0 10.1548C0 4.54523 4.54612 0 10.1567 0C15.7674 0 20.3135 4.54523 20.3135 10.1548ZM8.98481 14.451C8.98481 15.1003 9.5073 15.6227 10.1567 15.6227C10.8062 15.6227 11.3287 15.1003 11.3287 14.451V11.3265H14.4538C15.1033 11.3265 15.6258 10.8041 15.6258 10.1548C15.6258 9.50544 15.1033 8.98306 14.4538 8.98306H11.3287V5.85852C11.3287 5.2092 10.8062 4.68681 10.1567 4.68681C9.5073 4.68681 8.98481 5.2092 8.98481 5.85852V8.98306H5.85966C5.21022 8.98306 4.68773 9.50544 4.68773 10.1548C4.68773 10.8041 5.21022 11.3265 5.85966 11.3265H8.98481V14.451Z" fill="white"/>
</svg>
